PathFileType	4	(X/Y/Z)	C:\Users\dbl\Desktop\20210112\20210112\bx_n_0_501.trc
DataRate	CameraRate	NumFrames	NumMarkers	Units	OrigDataRate	OrigDataStartFrame	OrigNumFrames
50.00	50.00	       5	43	mm	50.00	85	       339
Frame#	Time	Top.Head			R.Acromium			L.Acromium			Sternum			R.ASIS			L.ASIS			V.Sacral			R.Thigh.Upper			R.Thigh.Front			R.Thigh.Rear			R.Knee.Lat			R.Knee.Med			R.Shank.Upper			R.Shank.Front			R.Shank.Rear			R.Ankle.Lat			R.Midfoot.Lat			R.Toe.Lat			R.Toe.Tip			R.Toe.Med			R.Ankle.Med			R.Midfoot.Sup			R.Heel			L.Thigh.Upper			L.Thigh.Front			L.Thigh.Rear			L.Knee.Lat			L.Knee.Med			L.Shank.Upper			L.Shank.Front			L.Shank.Rear			L.Ankle.Lat			L.Midfoot.Lat			L.Toe.Lat			L.Toe.Tip			L.Toe.Med			L.Ankle.Med			L.Midfoot.Sup			L.Heel			origin1 front left			origin2 front right			origin 3 back right			origin 4 back leftt			
		X1	Y1	Z1	X2	Y2	Z2	X3	Y3	Z3	X4	Y4	Z4	X5	Y5	Z5	X6	Y6	Z6	X7	Y7	Z7	X8	Y8	Z8	X9	Y9	Z9	X10	Y10	Z10	X11	Y11	Z11	X12	Y12	Z12	X13	Y13	Z13	X14	Y14	Z14	X15	Y15	Z15	X16	Y16	Z16	X17	Y17	Z17	X18	Y18	Z18	X19	Y19	Z19	X20	Y20	Z20	X21	Y21	Z21	X22	Y22	Z22	X23	Y23	Z23	X24	Y24	Z24	X25	Y25	Z25	X26	Y26	Z26	X27	Y27	Z27	X28	Y28	Z28	X29	Y29	Z29	X30	Y30	Z30	X31	Y31	Z31	X32	Y32	Z32	X33	Y33	Z33	X34	Y34	Z34	X35	Y35	Z35	X36	Y36	Z36	X37	Y37	Z37	X38	Y38	Z38	X39	Y39	Z39	X40	Y40	Z40	X41	Y41	Z41	X42	Y42	Z42	X43	Y43	Z43	

85	1.680	-335.74557	111.22942	1751.79004	-453.78583	-77.07548	1476.02808	-488.55222	276.72614	1485.60010	-479.96939	99.30794	1267.63428	-631.73566	-6.46698	1030.53699	-635.39917	236.46872	1046.93677	-825.08569	90.15507	1094.34058	-710.08063	-75.41830	873.72443	-630.60614	-0.91893	807.24146	-718.94763	-62.18905	756.97974	-726.25330	-35.24147	616.74866				-730.12939	-32.07139	569.17596				-766.46191	-48.81855	488.09622	-756.33087	-22.94233	207.74106	-641.39954	-59.63538	163.12573	-599.58923	-62.17759	157.99023	-546.16351	-10.80723	161.57904	-600.82684	38.80493	166.34689	-725.58978	68.89890	216.94908	-677.61102	56.90388	159.14359				-733.23804	283.34149	875.56274	-636.14642	214.08850	792.81812				-756.77185	254.47728	640.16809							-700.83966	197.43507	536.78229	-781.82629	262.31870	497.50803																																					
86	1.700	-329.35736	111.05659	1746.99353	-448.47049	-77.53961	1471.99390	-483.40607	275.88150	1481.47363	-477.69391	99.10815	1263.85437	-633.75439	-6.25678	1030.06714	-636.86188	237.20090	1046.84680	-825.93115	90.23684	1095.07153	-711.82629	-75.23083	873.73108	-632.13879	-0.77498	807.56134	-720.42371	-62.50939	757.10522	-727.27185	-35.11151	616.26086				-730.92145	-31.72782	568.97858				-767.46277	-49.26086	487.98404	-756.90808	-22.37465	207.71950	-641.71118	-59.86148	162.89783	-599.59418	-62.33451	158.06606	-546.11121	-10.79056	161.74568	-600.98560	38.65417	166.22997	-725.81610	69.01460	217.35272	-677.63000	56.81398	159.32800				-734.16064	283.88058	875.72797	-637.93262	214.06151	792.68420				-757.34094	254.58954	640.12488							-701.62250	197.91547	536.41168	-782.44775	262.57312	497.44858																																					
87	1.720	-323.22702	111.09650	1742.25525	-443.74139	-77.83858	1467.74597	-478.11310	275.81500	1477.93921	-475.53192	98.72291	1260.15210	-634.86615	-6.13667	1029.34473	-637.66827	236.68982	1045.60913	-826.48553	90.69109	1095.69104	-713.57135	-75.13377	873.37579	-633.48895	-0.94831	807.55548	-721.92212	-62.42021	757.04126	-728.68146	-35.13934	616.52350				-731.48193	-32.01321	569.15082				-768.23889	-49.40628	487.85449	-756.92090	-22.60368	208.01459	-641.52423	-59.63264	163.00839	-599.68372	-62.15580	157.69655	-546.32471	-10.83484	161.53726	-600.85846	38.73902	166.34686	-725.81592	68.63464	217.01398	-677.63000	56.81398	159.32800				-735.26740	283.88275	875.84296	-638.73785	214.04179	792.82758				-758.36774	254.86879	639.78180							-702.33203	197.61856	536.29449	-783.07141	262.56839	497.54239																																					
88	1.740	-316.87616	110.81670	1737.55176	-439.00131	-78.16535	1463.47778	-473.21268	275.39929	1474.30920	-473.59180	98.82046	1256.61353	-636.11768	-5.62756	1028.29956	-638.26447	236.75874	1044.87622	-827.07458	91.08302	1096.29785	-715.47510	-75.17395	873.95270	-634.87360	-0.55747	807.52173	-723.41254	-62.56109	757.31561	-729.48865	-35.10968	616.87024				-732.40283	-32.07922	569.53821				-768.56464	-49.06532	487.78970	-757.06049	-22.42682	207.70387	-641.78491	-59.97528	162.77107	-599.68372	-62.15580	157.69655	-546.32666	-10.77511	161.69456	-600.85846	38.73902	166.34686	-725.92267	68.82323	217.26563	-677.63000	56.81398	159.32800				-736.78766	283.88513	875.67731	-640.32330	213.97955	792.44312				-759.65717	254.61714	639.50055							-702.75671	197.53256	536.56598	-783.69000	262.67181	496.95398																																					
89	1.760	-310.99866	111.12740	1732.53369	-434.35880	-78.04421	1459.25769	-468.33105	275.04633	1470.43005	-471.39005	98.61320	1252.69849	-637.81982	-5.51218	1027.43787	-639.77814	236.52058	1044.02222	-828.00171	91.22748	1096.96191	-716.83801	-74.66170	873.60468	-636.51160	-0.61639	807.68597	-724.52728	-62.17411	757.01715	-730.63684	-34.95910	616.41107				-733.16986	-31.72410	569.32959				-769.02460	-49.00013	487.82788	-757.09314	-22.52451	207.82231	-641.71118	-59.86148	162.89783	-599.68372	-62.15580	157.69655	-546.14948	-10.88818	161.74106	-600.90912	38.72841	166.28252	-725.92267	68.82323	217.26563	-677.72815	56.92001	159.37260				-738.12122	283.90021	875.47174	-641.34796	213.93428	792.90259				-760.42755	254.94611	639.50006							-703.84515	197.61153	536.59406	-784.34686	262.91418	497.11844																																					
